<svg width="30" height="43" viewBox="0 0 30 43" fill="none" xmlns="http://www.w3.org/2000/svg">
<path fill-rule="evenodd" clip-rule="evenodd" d="M0 12.5401H3.74191V25.2292L0 21.9272V12.5401Z" fill="#999999" fill-opacity="0.3"/>
<path fill-rule="evenodd" clip-rule="evenodd" d="M4.47623 8.36065H8.06951V29.3373L4.47623 25.8856V8.36065Z" fill="#999999" fill-opacity="0.3"/>
<path fill-rule="evenodd" clip-rule="evenodd" d="M8.80359 4.18069H12.4709V24.0548H8.80359V4.18069Z" fill="#999999" fill-opacity="0.3"/>
<path fill-rule="evenodd" clip-rule="evenodd" d="M13.2019 0H17.0159V19.9477H13.2019V0Z" fill="#999999" fill-opacity="0.3"/>
<path fill-rule="evenodd" clip-rule="evenodd" d="M17.5297 3.95811H21.198V24.0545H17.5297V3.95811Z" fill="#999999" fill-opacity="0.3"/>
<path fill-rule="evenodd" clip-rule="evenodd" d="M22.0784 8.283H25.6716V25.8125L22.0784 29.3367V8.283Z" fill="#999999" fill-opacity="0.3"/>
<path fill-rule="evenodd" clip-rule="evenodd" d="M26.3297 12.4662H30V21.635L26.3297 25.2293V12.4662Z" fill="#999999" fill-opacity="0.3"/>
<path fill-rule="evenodd" clip-rule="evenodd" d="M8.80359 24.4978H12.4709V42.9001H8.80359V24.4978Z" fill="white"/>
<path fill-rule="evenodd" clip-rule="evenodd" d="M13.2019 20.5379H16.7942V42.9008H13.2019V20.5379Z" fill="white"/>
<path fill-rule="evenodd" clip-rule="evenodd" d="M17.5297 24.568H21.198V42.9002H17.5297V24.568Z" fill="white"/>
</svg>
