<svg width="42" height="38" viewBox="0 0 42 38" fill="none" xmlns="http://www.w3.org/2000/svg">
<path d="M0.440678 24.4348C0.0677967 22.8233 0 22.1656 0 20.4884C0 9.10959 9.35593 0 20.983 0C32.6441 0 42 9.10959 42 20.4884C42 22.1656 41.9322 22.8233 41.5593 24.4348L35.1186 29.006L34.1356 36.6357H23.4576L22.7797 37.129C22.2712 37.4907 21.5932 37.6552 20.983 37.6552C20.339 37.6552 19.7627 37.4579 19.0847 37.0303L18.5085 36.6357H7.83051L6.81356 29.006L0.440678 24.4348ZM18.9153 33.0839L19.8305 33.7417C20.1695 34.0048 20.678 34.2021 21.0169 34.2021C21.3559 34.2021 21.8644 34.0048 22.2034 33.7417L23.1186 33.0839H30.9492L31.7627 26.8026L38 22.3958C38.2373 21.475 38.3051 21.1461 38.3051 20.291C38.3051 19.2058 38 17.8574 37.5593 16.9037L37.5254 16.8708L26.2373 27.8878L37.0847 14.9305C36.6441 13.1218 35.7966 11.6419 34.4746 10.4579L34.4068 10.3922L24.6441 26.8355L33.2203 8.87939L33.1864 8.81361C32.0678 7.33371 30.6441 6.34712 28.7797 5.75516L22.8136 26.1449L27.1186 4.90011C25.8305 4.1766 24.3051 3.81485 22.7119 3.81485C22.2712 3.81485 22.1356 3.81485 21.7288 3.88062L20.9153 25.9804L19.8983 3.91351C19.4576 3.88062 19.322 3.88062 18.983 3.84773C17.4915 3.84773 16.1017 4.20949 14.678 4.96588L14.5763 4.99876L19.1186 26.1777L13.1864 5.75516C11.2542 6.38 9.69491 7.46526 8.71186 8.8465L17.3898 26.7368L7.69491 10.1949C6.33898 11.2472 5.25424 12.9902 4.81356 14.7661L15.6949 27.8878L4.44068 16.8051L4.40678 16.8379C3.9322 17.7917 3.66102 19.0742 3.66102 20.3239C3.66102 21.0474 3.76271 21.7052 3.9322 22.4616L10.2712 26.967L11.0508 33.0839H18.9153Z" fill="#DD1D21"/>
</svg>
