<svg width="35" height="33" viewBox="0 0 35 33" fill="none" xmlns="http://www.w3.org/2000/svg">
<path d="M30.4037 0.00298054C29.4435 0.00298054 28.7164 0.647221 28.3541 1.42142L23.0932 10.1807C22.7284 10.9908 22.4621 11.9009 22.4621 12.5033C22.4621 13.0417 22.5351 13.5173 22.7302 13.9557L28.4211 27.705H6.322C5.52649 27.705 4.86995 26.8969 4.86995 26.1509V2.46689C4.70274 -0.770913 0.101339 -0.769171 0 2.56861L0.100527 27.705C0.100527 30.4377 2.18953 32.6271 4.86995 32.6271H35L27.656 13.6223C27.4533 12.9147 27.363 12.273 27.857 11.4296L32.7158 3.43888C32.7842 3.27225 32.8833 2.56769 32.8833 2.36516C32.7871 0.914179 31.6628 -0.0611081 30.4037 0.00298054ZM18.4745 0.0142829C17.2927 0.0222941 16.1122 0.847986 16.1122 2.46689V19.4147C16.1122 21.8757 12.8395 21.6732 12.8395 19.4147V2.46689C12.8395 -0.770913 8.10356 -0.770914 8.10356 2.46689V19.5503C8.10356 23.4572 10.9881 26.0548 14.4311 26.0548C17.9679 26.0548 20.8425 23.4572 20.8425 19.5503V2.46689C20.8425 0.815941 19.6564 0.0062716 18.4745 0.0142829Z" fill="#999999" fill-opacity="0.3"/>
</svg>
