<svg width="32" height="53" viewBox="0 0 32 53" fill="none" xmlns="http://www.w3.org/2000/svg">
<path d="M29.3776 9.66051C28.2459 4.69487 25.3996 0.653202 25.0074 -6.79991e-05C24.3848 0.925235 22.1065 4.49007 20.9457 8.4358C19.6777 12.852 19.4872 16.7685 19.9181 20.6099C20.346 24.4665 21.9755 28.4308 21.9755 28.4308C22.8411 30.4965 24.1392 32.7297 24.9847 33.8238C26.2279 32.2161 29.0865 27.4223 29.9836 21.1686C30.4828 17.6776 30.5078 14.6262 29.3776 9.66051ZM24.9679 32.5789C24.4102 31.5307 23.5444 29.5409 23.4659 26.4438C23.4482 23.4683 24.65 20.9041 25.001 20.3732C25.3126 20.9049 26.3425 23.1378 26.4622 26.1894C26.5424 29.165 25.5464 31.5169 24.9679 32.5789ZM29.0369 18.0857C28.992 19.9833 28.7626 21.987 28.4717 23.1859C28.5778 21.1214 28.3331 18.2215 27.8606 15.9437C27.3882 13.6811 26.0479 9.88419 24.9762 8.13705C23.9826 9.80579 22.7571 13.0834 22.114 15.9216C21.4678 18.7597 21.4454 22.2058 21.4441 23.2381C21.2746 22.3726 20.8519 19.2599 20.976 16.1479C21.0796 13.5824 21.686 10.9264 22.018 9.71232C23.284 5.66046 24.7143 3.06619 24.9828 2.65662C25.2504 3.06684 27.0438 6.27226 27.9719 9.62845C28.8954 12.9846 29.0788 16.2033 29.0369 18.0857Z" fill="#999999" fill-opacity="0.3"/>
<path d="M26.952 34.5763L18.3859 34.5659L18.3789 40.3275C18.3864 40.3275 18.3925 40.3124 18.4 40.3124C20.4207 38.2885 23.6939 38.2925 25.7112 40.3213C27.727 42.335 27.723 45.6165 25.7023 47.6404C25.6933 47.6555 25.6842 47.6555 25.6752 47.6706C25.6646 47.6706 25.654 47.6857 25.6449 47.7009C23.6288 49.6945 20.997 50.6894 18.3663 50.6862C15.7236 50.683 13.0821 49.6818 11.0694 47.6529C7.51989 44.0949 7.10575 38.5748 9.8197 34.5556C10.1854 34.0116 10.6069 33.498 11.0871 33.0146C13.1048 30.9907 15.7487 29.9958 18.3914 29.999L18.4082 16.1471C8.25369 16.1348 0.0123871 24.3664 4.96272e-05 34.5437C-0.0122878 44.7209 8.20902 52.9876 18.3635 52.9999C23.658 53.0063 28.4303 50.7589 31.7893 47.179L31.8045 34.5822L26.952 34.5763Z" fill="#999999" fill-opacity="0.3"/>
</svg>
